<?xml version="1.0" standalone="no"?>
<!DOCTYPE svg PUBLIC "-//W3C//DTD SVG 20010904//EN"
 "http://www.w3.org/TR/2001/REC-SVG-20010904/DTD/svg10.dtd">
<svg version="1.0" xmlns="http://www.w3.org/2000/svg"
 width="460.000000pt" height="460.000000pt" viewBox="0 0 460.000000 460.000000"
 preserveAspectRatio="xMidYMid meet">
<metadata>
Created by potrace 1.11, written by Peter Selinger 2001-2013
</metadata>
<g transform="translate(0.000000,460.000000) scale(0.100000,-0.100000)"
fill="#000000" stroke="none">
<path d="M3085 4443 c-27 -8 -80 -15 -117 -15 -38 0 -68 -2 -68 -4 0 -2 21
-31 47 -65 l48 -61 -50 -44 c-82 -73 -88 -78 -145 -125 -30 -25 -66 -53 -80
-62 -14 -9 -54 -37 -90 -62 -70 -50 -128 -90 -169 -117 -14 -10 -40 -18 -58
-18 -17 0 -43 -4 -57 -10 -32 -12 -106 -83 -106 -102 0 -7 -6 -38 -14 -68 -13
-49 -13 -57 1 -72 9 -10 19 -18 23 -18 5 0 22 -13 39 -29 44 -41 86 -46 157
-20 33 12 72 30 88 40 29 18 30 17 75 -8 52 -30 71 -49 71 -74 0 -33 -92 -170
-221 -330 -42 -52 -95 -122 -118 -156 -23 -34 -66 -88 -96 -120 -30 -32 -55
-61 -55 -65 0 -4 -19 -12 -42 -18 -25 -7 -60 -28 -83 -50 -22 -21 -53 -42 -70
-47 -21 -7 -31 -18 -38 -43 -5 -19 -17 -46 -28 -61 -21 -30 -23 -52 -9 -112 5
-23 14 -75 21 -115 15 -97 31 -109 126 -92 38 6 81 21 98 33 17 13 57 33 90
46 33 13 75 35 92 48 18 13 50 30 70 37 21 8 52 21 68 30 17 9 37 16 45 16 9
0 20 4 26 10 5 5 47 25 94 43 68 28 86 32 88 20 4 -15 -84 -123 -128 -158 -14
-11 -52 -48 -85 -83 -33 -35 -79 -76 -103 -92 -40 -27 -102 -93 -102 -111 0
-4 -9 -10 -19 -14 -11 -3 -35 -20 -53 -38 -26 -25 -50 -35 -114 -48 -107 -22
-135 -36 -159 -82 l-20 -37 29 -82 c38 -111 70 -180 95 -202 27 -25 72 -15
136 29 193 135 211 145 269 145 30 0 58 -5 61 -10 4 -6 21 -17 38 -25 18 -8
59 -30 92 -50 33 -19 70 -40 81 -46 36 -18 52 -75 58 -200 l6 -117 -53 -21
c-28 -12 -90 -46 -137 -76 -46 -30 -88 -55 -92 -55 -5 0 -38 -18 -74 -40 -36
-22 -76 -40 -89 -40 -22 0 -22 2 -22 118 0 83 -5 132 -16 167 -10 28 -21 87
-26 133 -5 46 -12 86 -15 89 -21 21 -73 -78 -107 -205 -25 -91 -82 -215 -112
-245 -27 -27 -78 -100 -101 -145 -10 -19 -20 -64 -23 -102 -5 -56 -2 -75 15
-112 12 -23 28 -63 37 -88 37 -106 74 -107 193 -5 13 11 38 32 55 47 17 15 37
24 43 20 6 -4 37 -38 67 -75 31 -38 88 -98 126 -133 60 -56 78 -81 122 -172
47 -96 83 -158 100 -172 3 -3 25 -35 49 -73 39 -61 45 -66 62 -55 11 7 27 27
36 43 9 17 20 31 24 33 28 13 85 69 95 94 7 16 25 46 41 66 56 74 80 158 102
354 26 235 28 596 3 672 -15 46 -15 50 2 62 51 37 239 -5 346 -78 53 -35 129
-105 129 -118 0 -3 -59 -45 -132 -93 -72 -49 -140 -100 -151 -114 l-20 -25 49
7 c27 4 76 16 109 26 131 41 252 17 311 -60 15 -20 47 -51 71 -69 39 -29 51
-33 95 -30 46 3 51 5 65 38 80 189 71 283 -42 419 -69 84 -94 100 -245 157
-101 39 -161 47 -206 30 -53 -20 -374 -39 -391 -22 -9 8 -9 21 0 53 12 47 11
49 -58 167 -19 32 -35 64 -35 71 0 12 107 46 195 61 78 13 332 84 445 124 229
82 225 78 224 230 -1 187 -44 229 -303 291 -81 20 -86 20 -155 3 -39 -9 -109
-29 -156 -45 -47 -15 -107 -35 -135 -44 -27 -9 -71 -25 -97 -35 -46 -18 -48
-18 -48 -1 0 11 25 45 55 77 30 33 86 93 125 134 38 41 70 78 70 81 0 13 108
140 252 295 66 71 78 90 84 130 8 57 -6 109 -51 177 -63 99 -95 116 -283 147
-68 11 -125 20 -127 20 -2 0 -7 21 -11 47 -6 40 -15 56 -58 97 -33 32 -70 55
-106 68 -30 11 -74 27 -98 35 -23 9 -41 20 -40 25 4 11 76 50 147 81 23 11 61
33 84 50 45 34 89 55 237 111 52 20 108 47 124 60 l30 23 -28 124 c-15 68 -35
133 -44 144 -49 58 -124 115 -175 134 -32 13 -27 13 -92 -6z m66 -1135 c8 -15
2 -36 -30 -102 -22 -45 -49 -102 -61 -126 -64 -139 -109 -175 -275 -224 -160
-48 -173 -42 -93 37 83 82 281 297 298 323 9 12 36 39 62 58 25 19 48 42 51
50 8 19 34 11 48 -16z m359 -998 c27 -17 -4 -57 -111 -142 -106 -85 -152 -120
-172 -129 -19 -8 -79 -40 -222 -117 -42 -23 -126 -27 -277 -13 l-68 6 78 52
c42 28 93 60 112 71 19 10 60 32 90 49 57 31 144 76 217 112 23 11 93 38 157
60 64 22 124 44 133 50 22 13 44 13 63 1z m-684 -1304 c-1 -274 -2 -295 -20
-315 -24 -26 -75 -28 -107 -2 -13 10 -35 22 -49 26 -40 12 -172 84 -210 114
-19 15 -45 33 -58 40 -13 7 -22 16 -20 21 2 5 37 44 78 87 41 44 89 95 106
114 17 19 57 53 90 76 32 23 82 63 109 87 86 78 82 88 81 -248z"/>
<path d="M1725 3964 c-33 -7 -76 -19 -96 -26 -40 -15 -71 -47 -159 -163 -22
-29 -61 -62 -105 -87 -38 -23 -102 -61 -141 -85 -61 -36 -104 -53 -104 -40 0
2 18 45 40 97 47 110 62 190 36 190 -32 0 -55 -20 -67 -59 -8 -27 -20 -43 -43
-53 -17 -9 -70 -51 -117 -94 -47 -44 -112 -97 -144 -119 -32 -22 -90 -64 -129
-92 -39 -30 -82 -53 -96 -54 -36 0 -69 -48 -82 -118 -11 -59 -11 -62 26 -143
21 -46 43 -94 49 -108 39 -88 102 -82 241 24 85 65 91 69 182 130 33 22 66 46
74 53 21 18 146 109 225 163 36 25 89 62 117 83 96 71 114 68 58 -8 -17 -22
-45 -69 -63 -105 -40 -81 -108 -198 -156 -269 -20 -29 -44 -65 -53 -80 -40
-60 -99 -109 -146 -121 -60 -14 -116 -53 -144 -98 -20 -33 -21 -39 -9 -139 13
-117 18 -133 36 -133 7 0 39 -18 71 -39 39 -26 76 -42 109 -47 51 -7 98 -43
140 -108 21 -31 7 -56 -31 -56 -14 0 -25 -8 -29 -20 -4 -12 -16 -30 -28 -41
-12 -11 -22 -29 -22 -40 0 -16 -12 -26 -45 -40 -25 -10 -55 -18 -67 -18 -12
-1 -27 -10 -32 -20 -6 -10 -24 -24 -41 -30 -17 -5 -58 -31 -91 -56 -32 -25
-64 -45 -69 -45 -6 0 -10 -4 -10 -9 0 -5 -17 -20 -37 -32 -21 -13 -54 -34 -73
-46 -86 -55 -93 -57 -149 -39 -73 24 -125 21 -139 -6 -13 -24 -10 -124 6 -229
8 -57 49 -148 83 -185 10 -11 19 -25 19 -32 0 -22 44 -52 76 -52 65 0 183 75
290 183 97 99 402 395 438 425 40 34 40 34 48 11 5 -12 11 -101 14 -198 5
-142 3 -195 -11 -271 -9 -52 -20 -156 -24 -230 -8 -142 -6 -135 -77 -258 -21
-37 -26 -37 -112 -4 -52 20 -108 60 -182 130 -75 71 -180 153 -180 140 0 -7
10 -33 21 -57 11 -25 24 -65 30 -89 9 -42 42 -99 66 -115 6 -4 17 -33 24 -65
8 -36 34 -93 71 -153 52 -86 97 -198 98 -239 0 -8 5 -31 10 -52 9 -32 15 -37
50 -43 32 -5 51 -1 111 29 65 32 78 44 145 133 41 54 74 103 74 109 0 6 9 33
19 60 48 123 80 247 95 379 21 170 30 234 51 345 13 64 15 110 9 190 -4 58 -8
132 -10 165 -9 176 -23 313 -33 339 -6 16 -9 38 -5 49 3 11 51 76 105 145 81
102 97 127 89 143 -6 10 -14 21 -20 24 -10 6 33 75 56 88 8 4 14 15 14 22 0 8
23 37 50 63 46 44 62 72 42 72 -13 0 -179 -163 -185 -182 -4 -10 -16 -18 -27
-18 -13 0 -20 -7 -20 -20 0 -24 -26 -38 -42 -22 -8 8 16 38 83 105 52 52 114
119 139 148 25 29 62 71 83 93 74 79 59 80 -19 1 -121 -122 -398 -391 -411
-398 -24 -15 -59 11 -73 54 -13 39 -100 139 -121 139 -5 0 -9 8 -9 18 0 18 51
72 68 72 11 0 72 66 72 78 0 4 23 35 51 67 27 33 67 87 87 120 19 33 56 85 82
115 25 30 56 77 70 104 14 26 39 59 57 73 17 13 36 37 41 53 6 16 24 36 41 45
17 8 31 22 31 30 0 8 20 36 45 63 25 26 45 55 45 64 0 9 5 28 12 42 9 21 7 40
-12 103 -20 67 -30 86 -79 136 -30 31 -61 57 -67 57 -6 0 -22 8 -35 19 -32 25
-72 29 -144 15z"/>
</g>
</svg>
